<svg width="22" height="22" viewBox="0 0 22 22" fill="none" xmlns="http://www.w3.org/2000/svg">
<g clip-path="url(#clip0_623_2220)">
<path d="M8.97701 22C8.97701 21.8736 8.97701 20.8621 8.97701 20.7357C8.97701 19.092 8.97701 17.3219 8.97701 15.6782C8.97701 15.1724 9.10345 15.046 9.6092 15.046C10.4943 15.046 11.3793 15.046 12.2644 15.046C12.7701 15.046 12.8966 15.1724 12.8966 15.6782C12.8966 17.3219 12.8966 19.092 12.8966 20.7357V22C14.1609 22 15.4253 22 16.8161 22C17.069 22 17.1954 22 17.4483 22C18.7126 21.7472 19.4713 20.7357 19.4713 19.4713C19.4713 17.069 19.4713 14.6667 19.4713 12.3908C19.4713 12.2644 19.4713 12.2644 19.4713 12.138C19.8506 12.138 20.1034 12.138 20.3563 12.138C20.9885 12.138 21.4943 11.7587 21.8736 11.1265C22.1264 10.4943 22 9.8621 21.4943 9.35635C18.7126 6.57474 15.8046 3.6667 13.023 0.885087C11.8851 -0.252844 10.1149 -0.252844 8.97701 0.758651C6.1954 3.6667 3.28736 6.44831 0.505747 9.35635C0 9.73566 -0.126437 10.3678 0.126437 11C0.37931 11.6322 0.885058 12.0115 1.51724 12.0115C1.77012 12.0115 2.14943 12.0115 2.4023 12.0115C2.4023 12.138 2.4023 12.2644 2.4023 12.3908C2.4023 14.6667 2.4023 17.069 2.4023 19.3449C2.4023 19.5977 2.4023 19.7242 2.4023 19.977C2.65517 21.2414 3.66667 22.1265 4.93103 22.1265M20.9885 10.6207C20.8621 10.8736 20.7356 11 20.3563 11C19.977 11 19.5977 11 19.092 11C18.7126 11 18.4598 11.1265 18.4598 11.6322C18.4598 14.1609 18.4598 16.8161 18.4598 19.3449C18.4598 20.3564 17.8276 20.9885 16.8161 20.9885C15.931 20.9885 15.046 20.9885 14.1609 20.9885H14.0345C14.0345 20.8621 14.0345 20.7357 14.0345 20.7357C14.0345 19.092 14.0345 17.3219 14.0345 15.6782C14.0345 14.6667 13.4023 14.0345 12.3908 14.0345C11.5057 14.0345 10.4943 14.0345 9.6092 14.0345C8.5977 14.0345 7.96552 14.6667 7.96552 15.6782C7.96552 17.4483 7.96552 19.092 7.96552 20.8621C7.96552 20.9885 7.96552 20.9885 7.96552 21.115C7.83908 21.115 7.58621 21.115 7.45977 21.115C6.70115 21.115 5.94253 21.115 5.05747 21.115C4.04598 21.115 3.41379 20.3564 3.41379 19.4713C3.41379 16.9426 3.41379 14.2874 3.41379 11.7587C3.41379 11.2529 3.28736 11.1265 2.78161 11.1265C2.4023 11.1265 2.02299 11.1265 1.64368 11.1265C1.3908 11.1265 1.13793 11 1.01149 10.7472C0.885057 10.3678 1.01149 10.115 1.26437 9.98854C3.28736 7.96555 5.31035 5.94256 7.33333 3.91957C8.09195 3.16095 8.85057 2.40233 9.6092 1.64371C10.4943 0.75865 11.6322 0.75865 12.3908 1.64371C15.1724 4.42532 17.954 7.20693 20.7356 9.98854C20.9885 10.115 20.9885 10.3678 20.9885 10.6207Z" fill="#020203"/>
</g>
<defs>
<clipPath id="clip0_623_2220">
<rect width="22" height="22" fill="white"/>
</clipPath>
</defs>
</svg>
