<?xml version="1.0" encoding="UTF-8"?>
<svg id="uuid-8b364e24-9809-42f8-aa8f-0b92234d7314" data-name="Ebene 1" xmlns="http://www.w3.org/2000/svg" viewBox="0 0 21 21">
  <rect width="21" height="21" fill="none"/>
  <path d="m20.198,8.653l-.847-.86c-2.261-2.273-4.607-4.606-6.875-6.863-.52-.52-1.229-.805-1.998-.805h-.012c-.774.003-1.492.294-2.022.818-1.505,1.497-3.03,3.024-4.504,4.502-.75.751-1.499,1.502-2.249,2.251l-.97.97c-.516.516-.653,1.211-.366,1.859.29.666.818,1.018,1.528,1.018h.344c.138,0,.25.112.25.25v6.164c0,.173,0,.37.033.556.071.368.245.899.672,1.347.692.714,1.616.77,1.882.77h.037l3.772-.023.006-.249c.012-.389.012-.777,0-1.152-.019-.771-.016-1.552-.014-2.307,0-.251.002-.5.002-.746,0-.253.003-.51.006-.758.003-.247.006-.502.006-.752v-.111c0-.138.112-.25.25-.25h2.616c.138,0,.25.112.25.25v6.124h3.79c.217,0,.422-.018.626-.056.597-.132,1.101-.44,1.457-.89.357-.451.548-1.024.554-1.655v-6.224c0-.138.112-.25.25-.25h.307c.734,0,1.284-.353,1.591-1.021.299-.663.162-1.376-.367-1.905,0,0,0,0-.001-.001Zm-.93,1.308c-.039.093-.13.154-.231.154h-1.189c-.553.011-.833.286-.833.819v7.024c0,.806-.426,1.232-1.232,1.232h-2.088c-.138,0-.25-.112-.25-.25v-4.372c0-1.046-.684-1.729-1.742-1.74h-2.527c-.497,0-.923.164-1.232.474-.308.309-.471.734-.471,1.228v4.396c0,.138-.112.25-.25.25h-.602c-.123,0-.246,0-.37-.002-.366-.002-.744-.005-1.116.014-.021,0-.042.001-.063.001-.319,0-.606-.112-.814-.32-.234-.234-.368-.567-.368-.913.012-1.683.012-3.387.012-5.035v-1.965c0-.6-.271-.868-.88-.868h-1.142c-.101,0-.192-.061-.231-.154-.039-.093-.017-.201.054-.272l.049-.049s.002-.002.003-.003c1.484-1.435,2.968-2.919,4.404-4.355l1.868-1.868c.147-.147.294-.295.441-.444.293-.295.595-.601.9-.897.654-.654,1.54-.66,2.203-.012l7.591,7.591c.029.029.049.057.06.073h0c.062.072.078.173.042.26Z"/>
</svg>