<?xml version="1.0" encoding="UTF-8"?>
<svg id="uuid-fd53793c-a538-4e4f-bbff-d4720dbea899" data-name="Ebene 1" xmlns="http://www.w3.org/2000/svg" viewBox="0 0 21 21">
  <rect width="21" height="21" fill="none"/>
  <g>
    <g>
      <path d="m20.639,15.843c.015-.1.03-.203.048-.305V5.411c-.01-.061-.019-.122-.028-.184-.036-.239-.073-.486-.138-.708h0s0-.003,0-.003c-.312-1.123-.834-2.038-1.551-2.719-.716-.681-1.654-1.154-2.788-1.406-.332-.064-.702-.095-1.129-.095-1.51-.006-3.041-.009-4.551-.009s-3.041.003-4.55.009c-1.085.006-2.05.248-2.867.718-.816.47-1.51,1.183-2.062,2.118-.461.807-.694,1.719-.694,2.711,0,.881-.002,1.778-.004,2.645-.005,2.17-.01,4.415.017,6.616.018,1.184.312,2.216.875,3.068.555.84,1.386,1.527,2.47,2.042h.001s.001.001.001.001c.443.216.939.348,1.563.416h.006s.006.002.006.002c.07.012.129.023.185.034h10.119c.114-.022.229-.04.34-.057.196-.03.382-.058.556-.109h.001s.001,0,.001,0c1.117-.312,2.031-.836,2.715-1.558.684-.721,1.158-1.661,1.411-2.792.018-.102.033-.206.048-.307Zm-1.358-.822c0,1.768-.814,3.066-2.421,3.855h-.001s-.001.001-.001.001c-.523.25-1.122.371-1.831.371h-4.507c-1.485,0-3.02,0-4.53.012h-.002c-.975,0-1.797-.25-2.514-.766-.575-.418-1.013-.924-1.305-1.505-.289-.576-.435-1.231-.435-1.945V5.918c.006-.926.266-1.782.751-2.477.49-.701,1.201-1.225,2.057-1.515.416-.147.908-.224,1.42-.224,1.31-.011,2.714-.016,4.551-.016.759,0,1.517,0,2.276.002.758,0,1.517.002,2.275.002.923,0,1.78.258,2.477.747.701.491,1.225,1.204,1.515,2.062h0s0,.003,0,.003c.144.444.223.947.223,1.416.012,3.019.012,6.082,0,9.103Z" fill="#010101"/>
      <path d="m.659,3.349s-.001.002-.002.003c0-.001.001-.002.002-.003Z" fill="#010101"/>
    </g>
    <path d="m15.231,8.953c-.26-.612-.631-1.163-1.103-1.638-.973-.979-2.257-1.519-3.615-1.519s-2.652.534-3.624,1.502c-.971.968-1.512,2.254-1.524,3.622-.012,1.356.514,2.642,1.48,3.62.473.479,1.023.856,1.637,1.12.636.274,1.311.415,2.006.418h.022c1.355,0,2.636-.537,3.608-1.511.972-.975,1.511-2.262,1.517-3.625,0-.686-.136-1.356-.405-1.989Zm-2.105,4.704c-.707.705-1.643,1.093-2.637,1.093h-.001c-1.001-.006-1.94-.399-2.644-1.104-.705-.707-1.09-1.644-1.084-2.639.006-.995.399-1.931,1.104-2.635.707-.705,1.643-1.093,2.637-1.093.997.006,1.932.399,2.636,1.104.705.707,1.093,1.643,1.093,2.637-.006.997-.399,1.932-1.104,2.636Z"/>
    <path d="m17.095,5.016c0-.297-.119-.578-.334-.792-.217-.215-.503-.334-.806-.334-.295,0-.576.118-.79.332-.212.212-.332.491-.338.785.001.627.511,1.137,1.138,1.138.298-.006.579-.125.791-.338.212-.212.332-.493.338-.791Z" fill="#010101"/>
  </g>
</svg>