<?xml version="1.0" encoding="utf-8"?>
<!-- Generator: Adobe Illustrator 27.5.0, SVG Export Plug-In . SVG Version: 6.00 Build 0)  -->
<svg version="1.1" id="uuid-fd53793c-a538-4e4f-bbff-d4720dbea899"
	 xmlns="http://www.w3.org/2000/svg" xmlns:xlink="http://www.w3.org/1999/xlink" x="0px" y="0px" viewBox="0 0 21 21"
	 style="enable-background:new 0 0 21 21;" xml:space="preserve">
<style type="text/css">
	.st0{fill:none;}
	.st1{fill:#010101;}
</style>
<rect class="st0" width="21" height="21"/>
<g>
	<g>
		<path class="st1" d="M20.6,15.8c0-0.1,0-0.2,0-0.3V5.4c0-0.1,0-0.1,0-0.2c0-0.2-0.1-0.5-0.1-0.7l0,0v0c-0.3-1.1-0.8-2-1.6-2.7
			c-0.7-0.7-1.7-1.2-2.8-1.4c-0.3-0.1-0.7-0.1-1.1-0.1c-1.5,0-3,0-4.6,0s-3,0-4.6,0c-1.1,0-2,0.2-2.9,0.7C2.3,1.5,1.6,2.2,1,3.1
			C0.6,3.9,0.3,4.9,0.3,5.8c0,0.9,0,1.8,0,2.6c0,2.2,0,4.4,0,6.6c0,1.2,0.3,2.2,0.9,3.1c0.6,0.8,1.4,1.5,2.5,2h0l0,0
			c0.4,0.2,0.9,0.3,1.6,0.4h0l0,0c0.1,0,0.1,0,0.2,0h10.1c0.1,0,0.2,0,0.3-0.1c0.2,0,0.4-0.1,0.6-0.1h0h0c1.1-0.3,2-0.8,2.7-1.6
			c0.7-0.7,1.2-1.7,1.4-2.8C20.6,16,20.6,15.9,20.6,15.8L20.6,15.8z M19.3,15c0,1.8-0.8,3.1-2.4,3.9h0l0,0c-0.5,0.2-1.1,0.4-1.8,0.4
			h-4.5c-1.5,0-3,0-4.5,0h0c-1,0-1.8-0.2-2.5-0.8c-0.6-0.4-1-0.9-1.3-1.5c-0.3-0.6-0.4-1.2-0.4-1.9V5.9C1.7,5,2,4.1,2.5,3.4
			C3,2.7,3.7,2.2,4.5,1.9C5,1.8,5.5,1.7,6,1.7c1.3,0,2.7,0,4.6,0c0.8,0,1.5,0,2.3,0c0.8,0,1.5,0,2.3,0c0.9,0,1.8,0.3,2.5,0.7
			c0.7,0.5,1.2,1.2,1.5,2.1l0,0v0c0.1,0.4,0.2,0.9,0.2,1.4C19.3,8.9,19.3,12,19.3,15L19.3,15z"/>
		<path class="st1" d="M0.7,3.3C0.7,3.3,0.7,3.4,0.7,3.3C0.7,3.4,0.7,3.3,0.7,3.3z"/>
	</g>
	<path d="M15.2,9c-0.3-0.6-0.6-1.2-1.1-1.6c-1-1-2.3-1.5-3.6-1.5S7.9,6.3,6.9,7.3c-1,1-1.5,2.3-1.5,3.6c0,1.4,0.5,2.6,1.5,3.6
		c0.5,0.5,1,0.9,1.6,1.1c0.6,0.3,1.3,0.4,2,0.4h0c1.4,0,2.6-0.5,3.6-1.5c1-1,1.5-2.3,1.5-3.6C15.6,10.3,15.5,9.6,15.2,9L15.2,9z
		 M13.1,13.7c-0.7,0.7-1.6,1.1-2.6,1.1h0c-1,0-1.9-0.4-2.6-1.1C7.1,12.9,6.8,12,6.8,11s0.4-1.9,1.1-2.6c0.7-0.7,1.6-1.1,2.6-1.1
		c1,0,1.9,0.4,2.6,1.1c0.7,0.7,1.1,1.6,1.1,2.6C14.2,12,13.8,13,13.1,13.7L13.1,13.7z"/>
	<path class="st1" d="M17.1,5c0-0.3-0.1-0.6-0.3-0.8C16.5,4,16.3,3.9,16,3.9c-0.3,0-0.6,0.1-0.8,0.3C15,4.4,14.8,4.7,14.8,5
		c0,0.6,0.5,1.1,1.1,1.1c0.3,0,0.6-0.1,0.8-0.3C17,5.6,17.1,5.3,17.1,5L17.1,5z"/>
</g>
</svg>
