<?xml version="1.0" encoding="UTF-8"?>
<svg id="uuid-5626b1d9-063f-434e-bbed-39d76ae3177a" data-name="uuid-0716b84f-cdc9-44ac-a214-5ee31d993ab8" xmlns="http://www.w3.org/2000/svg" viewBox="0 0 32 32">
  <rect x=".05" y=".035" width="31.95" height="31.95" rx="4.325" ry="4.325" fill="#ededed"/>
  <path d="M8.334,18.766L4.28,6.185l5.966-1.922c2.459-.792,4.707-.086,5.517,2.43,.842,2.612-.655,4.63-2.998,5.385l-2.936,.945,1.65,4.729-3.144,1.014h-.001Zm2.714-9.208c1.315-.423,2.145-.921,1.813-1.95-.369-1.144-1.253-.817-2.568-.394l-2.193,.706,.755,2.345,2.193-.708h0Z" fill="#c18167"/>
  <g opacity=".8">
    <path d="M28.285,16.284l-5.094,12.133-2.843-1.194-2.215-10.248-2.992,8.061-2.956-1.24,5.094-12.133,2.826,1.186,2.227,10.318,2.999-8.125,2.953,1.241h0Z" fill="#f97dd0"/>
  </g>
</svg>