<?xml version="1.0" encoding="UTF-8"?>
<svg id="uuid-3cb12e0b-f0e8-443e-8c21-023f950c646b" data-name="Ebene 1" xmlns="http://www.w3.org/2000/svg" viewBox="0 0 32 32">
  <rect x=".05" y=".035" width="31.95" height="31.95" rx="4.325" ry="4.325" fill="#ededed"/>
  <g>
    <path d="M11.617,13.78c1.67-.356,2.906-1.416,2.515-3.249-.394-1.852-1.951-2.298-3.621-1.943l-4.229,.9,1.105,5.192,4.229-.9h0Zm-4.22,6.914l-2.551-11.981,5.682-1.21c2.342-.499,4.347,.365,4.857,2.761,.53,2.487-1.078,4.025-3.311,4.5l-4.647,.989,1.295,4.658-1.325,.282h0Z" fill="#c18167"/>
    <polygon points="27.223 14.556 25.536 26.633 24.047 26.425 17.195 14.579 15.978 25.297 14.581 25.102 16.268 13.026 17.757 13.234 24.61 25.079 25.808 14.359 27.223 14.556 27.223 14.556" fill="#f97dd0" opacity=".8"/>
  </g>
</svg>